<?xml version="1.0" encoding="UTF-8"?>
<svg id="Layer_1" data-name="Layer 1" xmlns="http://www.w3.org/2000/svg" xmlns:xlink="http://www.w3.org/1999/xlink" viewBox="0 0 422 93.69">
  <defs>
    <style>
      .cls-1 {
        stroke: #e1ff00;
        stroke-miterlimit: 10;
      }

      .cls-1, .cls-2 {
        fill: none;
      }

      .cls-3 {
        fill: #e1ff00;
      }

      .cls-4 {
        clip-path: url(#clippath);
      }

      .cls-5 {
        fill: #e9ff46;
      }
    </style>
    <clipPath id="clippath">
      <rect class="cls-2" width="422" height="85"/>
    </clipPath>
  </defs>
  <path class="cls-5" d="m180.54,69.04l2.86-10.39c.14-.48.4-.72.77-.72s.65.24.79.72l2.86,10.44,2.3-10.34c.13-.54.41-.82.84-.82.22,0,.41.07.55.22.16.14.24.33.24.55,0,.06,0,.13-.02.19,0,.06,0,.13-.02.19l-2.98,12.79c-.11.53-.38.79-.82.79-.38,0-.65-.26-.79-.77l-2.95-10.66-2.95,10.63c-.14.53-.42.79-.84.79s-.7-.28-.84-.84l-2.93-12.72-.05-.19v-.22c0-.21.08-.38.24-.53.16-.16.35-.24.58-.24.43,0,.71.28.84.84l2.33,10.27Zm23.74-9.43v4.66h4.75c.27,0,.49.06.65.19.16.13.24.3.24.53s-.08.4-.24.53c-.16.13-.38.19-.65.19h-4.75v5.28h5.83c.27,0,.49.07.65.22.16.13.24.3.24.53s-.08.4-.24.53c-.16.13-.38.19-.65.19h-6.5c-.35,0-.61-.1-.77-.31-.14-.21-.22-.47-.22-.79v-12.1c0-.4.08-.68.24-.84.18-.18.46-.26.86-.26h6.12c.29,0,.5.06.65.19.16.13.24.3.24.53s-.08.41-.24.55c-.14.13-.36.19-.65.19h-5.57Zm28.68,11.74v-12.1c0-.4.08-.68.24-.84.18-.18.46-.26.86-.26h2.9c1.36,0,2.46.21,3.29.62.83.4,1.43,1.07,1.8,2.02.38.94.58,2.22.58,3.84v1.34c0,1.6-.19,2.88-.58,3.84-.37.94-.97,1.62-1.8,2.04-.83.4-1.93.6-3.29.6h-3.02c-.35,0-.61-.1-.77-.31-.14-.21-.22-.47-.22-.79Zm1.66-.34h2.5c1.12,0,1.95-.21,2.5-.62.54-.43.9-1.02,1.08-1.78.19-.75.29-1.62.29-2.59v-1.42c0-.98-.1-1.84-.29-2.59-.18-.75-.54-1.34-1.08-1.78-.54-.43-1.38-.65-2.5-.65h-2.5v11.42Zm21.03-11.4v4.66h4.75c.27,0,.49.06.65.19.16.13.24.3.24.53s-.08.4-.24.53c-.16.13-.38.19-.65.19h-4.75v5.28h5.83c.27,0,.49.07.65.22.16.13.24.3.24.53s-.08.4-.24.53c-.16.13-.38.19-.65.19h-6.5c-.35,0-.61-.1-.77-.31-.14-.21-.22-.47-.22-.79v-12.1c0-.4.08-.68.24-.84.18-.18.46-.26.86-.26h6.12c.29,0,.5.06.65.19.16.13.24.3.24.53s-.08.41-.24.55c-.14.13-.36.19-.65.19h-5.57Zm19.75,5.86c-.83-.45-1.48-.86-1.94-1.22-.46-.38-.79-.79-.98-1.22-.18-.43-.26-.95-.26-1.56,0-1.15.34-2.03,1.01-2.64.69-.61,1.68-.91,2.98-.91.56,0,1.08.07,1.56.22.5.13.9.3,1.2.5.3.21.46.44.46.7,0,.21-.07.38-.22.53-.14.14-.32.22-.53.22h-.14s-.09-.04-.17-.07c-.08-.05-.19-.11-.34-.19-.54-.32-1.14-.48-1.78-.48-.77,0-1.36.18-1.78.53-.4.35-.6.86-.6,1.51,0,.5.11.9.34,1.2.22.3.53.58.91.82.4.22.85.47,1.34.74.69.35,1.3.71,1.85,1.08.56.37,1,.82,1.32,1.37.32.53.48,1.22.48,2.09,0,1.33-.38,2.34-1.15,3.02-.75.67-1.89,1.01-3.41,1.01-.96,0-1.74-.12-2.35-.36-.61-.26-1.08-.63-1.42-1.13-.1-.16-.12-.33-.07-.5.03-.14.11-.26.24-.36.13-.11.27-.17.43-.17.1,0,.18.02.24.05.06.03.18.11.34.24.72.54,1.59.82,2.62.82.93,0,1.64-.22,2.14-.65.51-.45.77-1.08.77-1.9,0-.64-.16-1.15-.48-1.54-.3-.38-.7-.7-1.18-.96-.46-.26-.94-.51-1.42-.77Zm15.84,6.19v-12.72c0-.32.07-.57.22-.74.14-.18.34-.26.6-.26.27,0,.48.09.62.26.14.18.22.42.22.74v12.72c0,.3-.07.55-.22.74-.14.18-.35.26-.62.26-.26,0-.46-.09-.6-.26-.14-.19-.22-.44-.22-.74Zm21.2-.74v-4.32h-2.02c-.24,0-.42-.06-.55-.17-.13-.11-.19-.26-.19-.46,0-.26.08-.44.24-.55.18-.11.38-.17.62-.17h2.21c.22,0,.42.02.6.05.19.03.34.13.43.29.08.11.13.26.14.46.02.18.02.37.02.58v4.37c0,.3-.03.53-.1.67s-.18.27-.36.38c-.3.19-.82.34-1.54.46-.7.13-1.44.19-2.21.19-2.1,0-3.57-.66-4.42-1.97-.29-.46-.51-1.09-.67-1.87-.16-.78-.24-1.66-.24-2.62v-1.87c0-1.06.1-1.99.29-2.81.19-.83.46-1.48.82-1.94.85-1.14,2.18-1.7,3.98-1.7,1.57,0,2.76.38,3.58,1.15.14.11.22.28.22.5,0,.21-.08.39-.24.55-.14.14-.31.22-.5.22-.03,0-.07,0-.12-.02-.03-.02-.09-.05-.17-.1s-.21-.13-.38-.24c-.35-.22-.71-.38-1.08-.48-.37-.11-.79-.17-1.27-.17-1.34,0-2.3.53-2.86,1.58-.16.34-.3.83-.41,1.49-.11.66-.17,1.33-.17,2.02v1.85c0,.38.02.78.07,1.2.05.4.1.78.17,1.15.21.94.58,1.62,1.13,2.04.54.42,1.34.62,2.38.62.51,0,.96-.02,1.34-.07.4-.06.82-.16,1.25-.29Zm21.43-1.51v-10.51c0-.3.06-.54.19-.7.14-.18.34-.26.58-.26.26,0,.45.09.58.26.14.16.22.39.22.7v12.7c0,.3-.07.56-.22.77-.13.19-.34.29-.65.29-.18,0-.33-.05-.46-.14-.13-.1-.26-.25-.38-.46l-6.65-11.18v10.85c0,.3-.07.54-.22.72-.13.16-.31.24-.55.24-.26,0-.46-.08-.6-.24-.13-.18-.19-.42-.19-.72v-12.55c0-.34.08-.62.24-.84.16-.24.41-.36.74-.36.21,0,.38.06.53.17.14.1.29.26.43.5l6.41,10.78Zm-216.56,22.51v-4.32h-2.02c-.24,0-.42-.06-.55-.17-.13-.11-.19-.26-.19-.46,0-.26.08-.44.24-.55.18-.11.38-.17.62-.17h2.21c.22,0,.42.02.6.05.19.03.34.13.43.29.08.11.13.26.14.46.02.18.02.37.02.58v4.37c0,.3-.03.53-.1.67-.06.14-.18.27-.36.38-.3.19-.82.34-1.54.46-.7.13-1.44.19-2.21.19-2.1,0-3.57-.66-4.42-1.97-.29-.46-.51-1.09-.67-1.87-.16-.78-.24-1.66-.24-2.62v-1.87c0-1.06.1-1.99.29-2.81.19-.83.46-1.48.82-1.94.85-1.14,2.18-1.7,3.98-1.7,1.57,0,2.76.38,3.58,1.15.14.11.22.28.22.5,0,.21-.08.39-.24.55-.14.14-.31.22-.5.22-.03,0-.07,0-.12-.02-.03-.02-.09-.05-.17-.1-.08-.05-.21-.13-.38-.24-.35-.22-.71-.38-1.08-.48-.37-.11-.79-.17-1.27-.17-1.34,0-2.3.53-2.86,1.58-.16.34-.3.83-.41,1.49s-.17,1.33-.17,2.02v1.85c0,.38.02.78.07,1.2.05.4.1.78.17,1.15.21.94.58,1.62,1.13,2.04.54.42,1.34.62,2.38.62.51,0,.96-.02,1.34-.07.4-.06.82-.16,1.25-.29Zm14.68-4.27v5.02c0,.3-.07.55-.22.74-.14.18-.35.26-.62.26-.26,0-.46-.09-.6-.26-.14-.19-.22-.44-.22-.74v-12.53c0-.37.1-.62.31-.77.21-.14.47-.22.79-.22h2.78c1.1,0,2.01.14,2.71.41.72.26,1.25.69,1.58,1.3.35.61.53,1.45.53,2.52,0,.7-.08,1.3-.24,1.8-.14.5-.39.91-.74,1.25-.34.32-.78.59-1.34.82.16.14.3.34.43.58.14.22.31.54.5.96l1.56,3.48c.05.11.09.22.12.34.03.1.05.19.05.29,0,.19-.09.37-.26.53-.16.16-.35.24-.58.24-.38,0-.66-.22-.84-.67l-1.61-3.77c-.13-.3-.26-.57-.41-.79-.13-.24-.26-.41-.38-.5-.11-.11-.25-.18-.41-.22-.14-.03-.39-.05-.74-.05h-2.16Zm-.02-1.34h2.02c.86,0,1.54-.09,2.04-.26.51-.19.87-.5,1.08-.91.21-.43.31-1.01.31-1.73,0-1.07-.22-1.82-.67-2.23s-1.24-.62-2.38-.62h-2.4v5.76Zm20.23-5.69v4.66h4.75c.27,0,.49.06.65.19s.24.3.24.53-.08.4-.24.53c-.16.13-.38.19-.65.19h-4.75v5.28h5.83c.27,0,.49.07.65.22.16.13.24.3.24.53s-.08.4-.24.53c-.16.13-.38.19-.65.19h-6.5c-.35,0-.61-.1-.77-.31-.14-.21-.22-.47-.22-.79v-12.1c0-.4.08-.68.24-.84.18-.18.46-.26.86-.26h6.12c.29,0,.5.06.65.19.16.13.24.3.24.53s-.08.41-.24.55c-.14.13-.36.19-.65.19h-5.57Zm24.67,9.46h-6.22l-1.06,2.88c-.16.48-.43.72-.82.72-.21,0-.39-.07-.55-.22-.16-.16-.24-.34-.24-.55,0-.08,0-.16.02-.24.02-.08.04-.17.07-.26l4.63-12.55c.13-.32.27-.55.43-.7.16-.14.37-.22.62-.22s.46.07.62.22c.16.14.3.37.41.67l4.66,12.55c.06.18.1.35.1.53,0,.21-.08.39-.24.55-.16.14-.35.22-.58.22-.37,0-.65-.25-.84-.74l-1.03-2.86Zm-.43-1.39l-2.66-7.34-2.69,7.34h5.35Zm14.79-8.06h-3.43c-.27,0-.49-.06-.65-.19-.16-.14-.24-.33-.24-.55s.08-.4.24-.53c.16-.13.38-.19.65-.19h8.5c.29,0,.5.06.65.19.16.13.24.3.24.53s-.08.41-.24.55c-.14.13-.36.19-.65.19h-3.43v12.05c0,.3-.07.55-.22.74-.13.18-.33.26-.6.26-.26,0-.46-.09-.6-.26-.14-.19-.22-.44-.22-.74v-12.05Zm29.03,0v4.78h4.61c.27,0,.48.06.62.19.16.13.24.3.24.53s-.08.4-.24.53c-.14.13-.35.19-.62.19h-4.61v5.83c0,.3-.07.55-.22.74-.14.18-.35.26-.62.26-.26,0-.46-.09-.6-.26-.14-.19-.22-.44-.22-.74v-12.53c0-.37.1-.62.31-.77.21-.14.47-.22.79-.22h5.95c.29,0,.5.06.65.19.16.13.24.3.24.53s-.08.41-.24.55c-.14.13-.36.19-.65.19h-5.4Zm23.24,9.46h-6.22l-1.06,2.88c-.16.48-.43.72-.82.72-.21,0-.39-.07-.55-.22-.16-.16-.24-.34-.24-.55,0-.08,0-.16.02-.24.02-.08.04-.17.07-.26l4.63-12.55c.13-.32.27-.55.43-.7.16-.14.37-.22.62-.22s.46.07.62.22c.16.14.3.37.41.67l4.66,12.55c.06.18.1.35.1.53,0,.21-.08.39-.24.55-.16.14-.35.22-.58.22-.37,0-.65-.25-.84-.74l-1.03-2.86Zm-.43-1.39l-2.66-7.34-2.69,7.34h5.35Zm20.18-2.9c.91.21,1.54.62,1.87,1.25.35.62.53,1.42.53,2.4,0,1.06-.18,1.88-.55,2.47-.37.58-.91.98-1.63,1.22-.72.22-1.62.34-2.71.34h-3.19c-.35,0-.61-.1-.77-.31-.14-.21-.22-.47-.22-.79v-12.1c0-.4.08-.68.24-.84.18-.18.46-.26.86-.26h3.12c1.58,0,2.72.26,3.41.79.69.51,1.03,1.37,1.03,2.57,0,1.66-.66,2.75-1.99,3.26Zm-5.06-.53h2.09c.74,0,1.34-.06,1.82-.19.5-.13.87-.38,1.13-.74.26-.37.38-.92.38-1.66,0-.62-.14-1.09-.41-1.39-.26-.3-.61-.5-1.06-.6s-.97-.14-1.56-.14h-2.4v4.73Zm0,6.82h2.35c.75,0,1.38-.06,1.9-.19s.9-.38,1.15-.74c.27-.38.41-.96.41-1.73s-.14-1.4-.41-1.8c-.27-.42-.67-.7-1.2-.84-.53-.14-1.18-.22-1.97-.22h-2.23v5.52Zm20.3-4.42v5.02c0,.3-.07.55-.22.74-.14.18-.35.26-.62.26-.26,0-.46-.09-.6-.26-.14-.19-.22-.44-.22-.74v-12.53c0-.37.1-.62.31-.77.21-.14.47-.22.79-.22h2.78c1.1,0,2.01.14,2.71.41.72.26,1.25.69,1.58,1.3.35.61.53,1.45.53,2.52,0,.7-.08,1.3-.24,1.8-.14.5-.39.91-.74,1.25-.34.32-.78.59-1.34.82.16.14.3.34.43.58.14.22.31.54.5.96l1.56,3.48c.05.11.09.22.12.34.03.1.05.19.05.29,0,.19-.09.37-.26.53-.16.16-.35.24-.58.24-.38,0-.66-.22-.84-.67l-1.61-3.77c-.13-.3-.26-.57-.41-.79-.13-.24-.26-.41-.38-.5-.11-.11-.25-.18-.41-.22-.14-.03-.39-.05-.74-.05h-2.16Zm-.02-1.34h2.02c.86,0,1.54-.09,2.04-.26.51-.19.87-.5,1.08-.91.21-.43.31-1.01.31-1.73,0-1.07-.22-1.82-.67-2.23s-1.24-.62-2.38-.62h-2.4v5.76Zm18.72,6.36v-12.72c0-.32.07-.57.22-.74.14-.18.34-.26.6-.26.27,0,.48.09.62.26.14.18.22.42.22.74v12.72c0,.3-.07.55-.22.74-.14.18-.35.26-.62.26-.26,0-.46-.09-.6-.26-.14-.19-.22-.44-.22-.74Zm14.84-7.25v1.85c0,.67.05,1.31.14,1.92.1.59.26,1.12.5,1.58.24.46.58.83,1.03,1.1s1.03.41,1.75.41c.35,0,.66-.02.94-.07.29-.06.57-.16.84-.29.29-.13.58-.3.86-.5.22-.14.4-.22.53-.22.21,0,.38.08.5.24.14.16.22.34.22.55s-.08.38-.24.53c-.38.37-.9.66-1.54.86s-1.36.31-2.16.31c-1.01,0-1.84-.16-2.5-.48-.66-.34-1.17-.8-1.54-1.39s-.63-1.27-.79-2.04c-.14-.78-.22-1.63-.22-2.54v-1.87c0-.91.07-1.76.22-2.54.16-.78.42-1.46.79-2.04.38-.59.9-1.05,1.56-1.37.66-.34,1.49-.5,2.5-.5.75,0,1.42.1,2.02.29.61.18,1.1.45,1.49.82.14.14.22.32.22.53s-.07.39-.22.55c-.14.14-.32.22-.53.22-.14,0-.33-.08-.55-.24-.69-.5-1.48-.74-2.38-.74-.72,0-1.31.14-1.78.41-.45.27-.8.65-1.06,1.13-.24.46-.41,1.01-.5,1.63-.08.61-.12,1.25-.12,1.92Zm19.82,1.06c-.83-.45-1.48-.86-1.94-1.22-.46-.38-.79-.79-.98-1.22-.18-.43-.26-.95-.26-1.56,0-1.15.34-2.03,1.01-2.64.69-.61,1.68-.91,2.98-.91.56,0,1.08.07,1.56.22.5.13.9.3,1.2.5s.46.44.46.7c0,.21-.07.38-.22.53-.14.14-.32.22-.53.22h-.14s-.09-.04-.17-.07c-.08-.05-.19-.11-.34-.19-.54-.32-1.14-.48-1.78-.48-.77,0-1.36.18-1.78.53-.4.35-.6.86-.6,1.51,0,.5.11.9.34,1.2.22.3.53.58.91.82.4.22.85.47,1.34.74.69.35,1.3.71,1.85,1.08.56.37,1,.82,1.32,1.37.32.53.48,1.22.48,2.09,0,1.33-.38,2.34-1.15,3.02-.75.67-1.89,1.01-3.41,1.01-.96,0-1.74-.12-2.35-.36-.61-.26-1.08-.63-1.42-1.13-.1-.16-.12-.33-.07-.5.03-.14.11-.26.24-.36.13-.11.27-.17.43-.17.1,0,.18.02.24.05.06.03.18.11.34.24.72.54,1.59.82,2.62.82.93,0,1.64-.22,2.14-.65.51-.45.77-1.08.77-1.9,0-.64-.16-1.15-.48-1.54-.3-.38-.7-.7-1.18-.96-.46-.26-.94-.51-1.42-.77Z"/>
  <g class="cls-4">
    <g>
      <path class="cls-3" d="m367.34,13.84h11.8l-23.89,23.87h-11.8l23.89-23.87Z"/>
      <path class="cls-3" d="m343.62,13.84h11.8l-23.89,23.87h-11.8l23.89-23.87Z"/>
      <path class="cls-3" d="m319.87,13.84h11.8l-23.89,23.87h-11.8l23.89-23.87Z"/>
      <path class="cls-3" d="m296.15,13.84h11.8l-23.89,23.87h-11.8l23.89-23.87Z"/>
      <path class="cls-3" d="m272.41,13.84h11.8l-23.89,23.87h-11.8l23.89-23.87Z"/>
      <path class="cls-3" d="m52.48,43.46h49.07l-12.35,12.3h-49.07l12.35-12.3Z"/>
      <path class="cls-1" d="m162.18,25.78L186.54,1.45h231.93s-48.75,48.63-48.75,48.63H34.99L1.05,83.98"/>
    </g>
  </g>
</svg>