<svg width="644" height="116" viewBox="0 0 644 116" fill="none" xmlns="http://www.w3.org/2000/svg">
<path d="M642.5 58C642.5 61.3974 640.593 64.9308 636.467 68.5631C632.348 72.189 626.185 75.7563 618.108 79.1962C601.965 86.0708 578.514 92.2958 549.422 97.5359C491.264 108.012 410.857 114.5 322 114.5C233.143 114.5 152.736 108.012 94.5775 97.5359C65.4858 92.2958 42.0349 86.0708 25.8921 79.1962C17.8147 75.7563 11.6522 72.189 7.53299 68.5631C3.40655 64.9308 1.5 61.3974 1.5 58C1.5 54.6026 3.40655 51.0692 7.53299 47.4369C11.6522 43.811 17.8147 40.2437 25.8921 36.8039C42.0349 29.9292 65.4858 23.7042 94.5775 18.4641C152.736 7.98823 233.143 1.5 322 1.5C410.857 1.5 491.264 7.98823 549.422 18.4641C578.514 23.7042 601.965 29.9292 618.108 36.8039C626.185 40.2437 632.348 43.811 636.467 47.4369C640.593 51.0692 642.5 54.6026 642.5 58Z" stroke="url(#paint0_linear_1_6)" stroke-width="3"/>
<defs>
<linearGradient id="paint0_linear_1_6" x1="322" y1="0" x2="322" y2="116" gradientUnits="userSpaceOnUse">
<stop offset="0.2" stop-color="#C2C2C2" stop-opacity="0"/>
<stop offset="1" stop-color="#E9FF46"/>
</linearGradient>
</defs>
</svg>
