<svg width="422" height="85" viewBox="0 0 422 85" fill="none" xmlns="http://www.w3.org/2000/svg">
<g clip-path="url(#clip0_2_85)">
<path d="M367.338 13.8372L379.139 13.8372L355.246 37.7035L343.445 37.7035L367.338 13.8372Z" fill="#E1FF00"/>
<path d="M343.62 13.8372L355.421 13.8372L331.528 37.7035L319.727 37.7035L343.62 13.8372Z" fill="#E1FF00"/>
<path d="M319.873 13.8372L331.673 13.8372L307.781 37.7035L295.98 37.7035L319.873 13.8372Z" fill="#E1FF00"/>
<path d="M296.155 13.8372L307.955 13.8372L284.063 37.7035L272.262 37.7035L296.155 13.8372Z" fill="#E1FF00"/>
<path d="M272.408 13.8372L284.208 13.8372L260.315 37.7035L248.515 37.7035L272.408 13.8372Z" fill="#E1FF00"/>
<path d="M52.4769 43.4593L101.545 43.4593L89.1902 55.7558L40.1225 55.7558L52.4769 43.4593Z" fill="#E1FF00"/>
<g style="mix-blend-mode:screen">
<path d="M162.18 25.7848L186.539 1.45346L418.474 1.45348L369.727 50.0872L34.9943 50.0872L1.04899 83.9825" stroke="#E1FF00" stroke-miterlimit="10"/>
</g>
</g>
<defs>
<clipPath id="clip0_2_85">
<rect width="422" height="85" fill="white" transform="translate(422 85) rotate(-180)"/>
</clipPath>
</defs>
</svg>
