<svg width="229" height="37" viewBox="0 0 229 37" fill="none" xmlns="http://www.w3.org/2000/svg">
<path d="M72.1199 11.592L74.9759 1.2C75.1199 0.719999 75.3759 0.48 75.7439 0.48C76.1279 0.48 76.3919 0.719999 76.5359 1.2L79.3919 11.64L81.6959 1.296C81.8239 0.751999 82.1039 0.48 82.5359 0.48C82.7599 0.48 82.9439 0.552 83.0879 0.696C83.2479 0.84 83.3279 1.024 83.3279 1.248C83.3279 1.312 83.3199 1.376 83.3039 1.44C83.3039 1.504 83.2959 1.568 83.2799 1.632L80.3039 14.424C80.1919 14.952 79.9199 15.216 79.4879 15.216C79.1039 15.216 78.8399 14.96 78.6959 14.448L75.7439 3.792L72.7919 14.424C72.6479 14.952 72.3679 15.216 71.9519 15.216C71.5359 15.216 71.2559 14.936 71.1119 14.376L68.1839 1.656C68.1679 1.592 68.1519 1.528 68.1359 1.464C68.1359 1.384 68.1359 1.312 68.1359 1.248C68.1359 1.04 68.2159 0.863999 68.3759 0.719999C68.5359 0.559999 68.7279 0.48 68.9519 0.48C69.3839 0.48 69.6639 0.759999 69.7919 1.32L72.1199 11.592ZM95.8628 2.16V6.816H100.615C100.887 6.816 101.103 6.88 101.263 7.008C101.423 7.136 101.503 7.312 101.503 7.536C101.503 7.76 101.423 7.936 101.263 8.064C101.103 8.192 100.887 8.256 100.615 8.256H95.8628V13.536H101.695C101.967 13.536 102.183 13.608 102.343 13.752C102.503 13.88 102.583 14.056 102.583 14.28C102.583 14.504 102.503 14.68 102.343 14.808C102.183 14.936 101.967 15 101.695 15H95.1908C94.8388 15 94.5828 14.896 94.4228 14.688C94.2788 14.48 94.2068 14.216 94.2068 13.896V1.8C94.2068 1.4 94.2868 1.12 94.4468 0.959999C94.6228 0.783999 94.9108 0.696 95.3108 0.696H101.431C101.719 0.696 101.935 0.76 102.079 0.888C102.239 1.016 102.319 1.192 102.319 1.416C102.319 1.64 102.239 1.824 102.079 1.968C101.935 2.096 101.719 2.16 101.431 2.16H95.8628ZM124.542 13.896V1.8C124.542 1.4 124.622 1.12 124.782 0.959999C124.958 0.783999 125.246 0.696 125.646 0.696H128.55C129.91 0.696 131.006 0.903999 131.838 1.32C132.67 1.72 133.27 2.392 133.638 3.336C134.022 4.28 134.214 5.56 134.214 7.176V8.52C134.214 10.12 134.022 11.4 133.638 12.36C133.27 13.304 132.67 13.984 131.838 14.4C131.006 14.8 129.91 15 128.55 15H125.526C125.174 15 124.918 14.896 124.758 14.688C124.614 14.48 124.542 14.216 124.542 13.896ZM126.198 13.56H128.694C129.814 13.56 130.646 13.352 131.19 12.936C131.734 12.504 132.094 11.912 132.27 11.16C132.462 10.408 132.558 9.544 132.558 8.568V7.152C132.558 6.176 132.462 5.312 132.27 4.56C132.094 3.808 131.734 3.216 131.19 2.784C130.646 2.352 129.814 2.136 128.694 2.136H126.198V13.56ZM147.226 2.16V6.816H151.978C152.25 6.816 152.466 6.88 152.626 7.008C152.786 7.136 152.866 7.312 152.866 7.536C152.866 7.76 152.786 7.936 152.626 8.064C152.466 8.192 152.25 8.256 151.978 8.256H147.226V13.536H153.058C153.33 13.536 153.546 13.608 153.706 13.752C153.866 13.88 153.946 14.056 153.946 14.28C153.946 14.504 153.866 14.68 153.706 14.808C153.546 14.936 153.33 15 153.058 15H146.554C146.202 15 145.946 14.896 145.786 14.688C145.642 14.48 145.57 14.216 145.57 13.896V1.8C145.57 1.4 145.65 1.12 145.81 0.959999C145.986 0.783999 146.274 0.696 146.674 0.696H152.794C153.082 0.696 153.298 0.76 153.442 0.888C153.602 1.016 153.682 1.192 153.682 1.416C153.682 1.64 153.602 1.824 153.442 1.968C153.298 2.096 153.082 2.16 152.794 2.16H147.226ZM166.979 8.016C166.147 7.568 165.499 7.16 165.035 6.792C164.571 6.408 164.243 6 164.051 5.568C163.875 5.136 163.787 4.616 163.787 4.008C163.787 2.856 164.123 1.976 164.795 1.368C165.483 0.76 166.475 0.456 167.771 0.456C168.331 0.456 168.851 0.528 169.331 0.672C169.827 0.799999 170.227 0.967999 170.531 1.176C170.835 1.384 170.987 1.616 170.987 1.872C170.987 2.08 170.915 2.256 170.771 2.4C170.627 2.544 170.451 2.616 170.243 2.616C170.195 2.616 170.147 2.616 170.099 2.616C170.067 2.6 170.011 2.576 169.931 2.544C169.851 2.496 169.739 2.432 169.595 2.352C169.051 2.032 168.459 1.872 167.819 1.872C167.051 1.872 166.459 2.048 166.043 2.4C165.643 2.752 165.443 3.256 165.443 3.912C165.443 4.408 165.555 4.808 165.779 5.112C166.003 5.416 166.307 5.688 166.691 5.928C167.091 6.152 167.539 6.4 168.035 6.672C168.723 7.024 169.339 7.384 169.883 7.752C170.443 8.12 170.883 8.576 171.203 9.12C171.523 9.648 171.683 10.344 171.683 11.208C171.683 12.536 171.299 13.544 170.531 14.232C169.779 14.904 168.643 15.24 167.123 15.24C166.163 15.24 165.379 15.12 164.771 14.88C164.163 14.624 163.691 14.248 163.355 13.752C163.259 13.592 163.235 13.424 163.283 13.248C163.315 13.104 163.395 12.984 163.523 12.888C163.651 12.776 163.795 12.72 163.955 12.72C164.051 12.72 164.131 12.736 164.195 12.768C164.259 12.8 164.371 12.88 164.531 13.008C165.251 13.552 166.123 13.824 167.147 13.824C168.075 13.824 168.787 13.608 169.283 13.176C169.795 12.728 170.051 12.096 170.051 11.28C170.051 10.64 169.891 10.128 169.571 9.744C169.267 9.36 168.875 9.04 168.395 8.784C167.931 8.528 167.459 8.272 166.979 8.016ZM182.823 14.208V1.488C182.823 1.168 182.895 0.92 183.039 0.743999C183.183 0.567999 183.383 0.48 183.639 0.48C183.911 0.48 184.119 0.567999 184.263 0.743999C184.407 0.92 184.479 1.168 184.479 1.488V14.208C184.479 14.512 184.407 14.76 184.263 14.952C184.119 15.128 183.911 15.216 183.639 15.216C183.383 15.216 183.183 15.128 183.039 14.952C182.895 14.76 182.823 14.512 182.823 14.208ZM204.019 13.464V9.144H202.003C201.763 9.144 201.579 9.088 201.451 8.976C201.323 8.864 201.259 8.712 201.259 8.52C201.259 8.264 201.339 8.08 201.499 7.968C201.675 7.856 201.883 7.8 202.123 7.8H204.331C204.555 7.8 204.755 7.816 204.931 7.848C205.123 7.88 205.267 7.976 205.363 8.136C205.443 8.248 205.491 8.4 205.507 8.592C205.523 8.768 205.531 8.96 205.531 9.168V13.536C205.531 13.84 205.499 14.064 205.435 14.208C205.371 14.352 205.251 14.48 205.075 14.592C204.771 14.784 204.259 14.936 203.539 15.048C202.835 15.176 202.099 15.24 201.331 15.24C199.235 15.24 197.763 14.584 196.915 13.272C196.627 12.808 196.403 12.184 196.243 11.4C196.083 10.616 196.003 9.744 196.003 8.784V6.912C196.003 5.856 196.099 4.92 196.291 4.104C196.483 3.272 196.755 2.624 197.107 2.16C197.955 1.024 199.283 0.456 201.091 0.456C202.659 0.456 203.851 0.84 204.667 1.608C204.811 1.72 204.883 1.888 204.883 2.112C204.883 2.32 204.803 2.504 204.643 2.664C204.499 2.808 204.331 2.88 204.139 2.88C204.107 2.88 204.067 2.872 204.019 2.856C203.987 2.84 203.931 2.808 203.851 2.76C203.771 2.712 203.643 2.632 203.467 2.52C203.115 2.296 202.755 2.136 202.387 2.04C202.019 1.928 201.595 1.872 201.115 1.872C199.771 1.872 198.819 2.4 198.259 3.456C198.099 3.792 197.963 4.288 197.851 4.944C197.739 5.6 197.683 6.272 197.683 6.96V8.808C197.683 9.192 197.707 9.592 197.755 10.008C197.803 10.408 197.859 10.792 197.923 11.16C198.131 12.104 198.507 12.784 199.051 13.2C199.595 13.616 200.387 13.824 201.427 13.824C201.939 13.824 202.387 13.8 202.771 13.752C203.171 13.688 203.587 13.592 204.019 13.464ZM225.446 11.952V1.44C225.446 1.136 225.51 0.903999 225.638 0.743999C225.782 0.567999 225.974 0.48 226.214 0.48C226.47 0.48 226.662 0.567999 226.79 0.743999C226.934 0.903999 227.006 1.136 227.006 1.44V14.136C227.006 14.44 226.934 14.696 226.79 14.904C226.662 15.096 226.446 15.192 226.142 15.192C225.966 15.192 225.814 15.144 225.686 15.048C225.558 14.952 225.43 14.8 225.302 14.592L218.654 3.408V14.256C218.654 14.56 218.582 14.8 218.438 14.976C218.31 15.136 218.126 15.216 217.886 15.216C217.63 15.216 217.43 15.136 217.286 14.976C217.158 14.8 217.094 14.56 217.094 14.256V1.704C217.094 1.368 217.174 1.088 217.334 0.863999C217.494 0.623999 217.742 0.503999 218.078 0.503999C218.286 0.503999 218.462 0.559999 218.606 0.672C218.75 0.768 218.894 0.935999 219.038 1.176L225.446 11.952ZM8.88363 34.464V30.144H6.86763C6.62763 30.144 6.44363 30.088 6.31563 29.976C6.18763 29.864 6.12363 29.712 6.12363 29.52C6.12363 29.264 6.20363 29.08 6.36363 28.968C6.53963 28.856 6.74763 28.8 6.98763 28.8H9.19563C9.41963 28.8 9.61963 28.816 9.79563 28.848C9.98763 28.88 10.1316 28.976 10.2276 29.136C10.3076 29.248 10.3556 29.4 10.3716 29.592C10.3876 29.768 10.3956 29.96 10.3956 30.168V34.536C10.3956 34.84 10.3636 35.064 10.2996 35.208C10.2356 35.352 10.1156 35.48 9.93963 35.592C9.63563 35.784 9.12363 35.936 8.40363 36.048C7.69963 36.176 6.96363 36.24 6.19563 36.24C4.09963 36.24 2.62763 35.584 1.77963 34.272C1.49163 33.808 1.26763 33.184 1.10763 32.4C0.947627 31.616 0.867627 30.744 0.867627 29.784V27.912C0.867627 26.856 0.963627 25.92 1.15563 25.104C1.34763 24.272 1.61963 23.624 1.97163 23.16C2.81963 22.024 4.14763 21.456 5.95563 21.456C7.52363 21.456 8.71563 21.84 9.53163 22.608C9.67563 22.72 9.74763 22.888 9.74763 23.112C9.74763 23.32 9.66763 23.504 9.50763 23.664C9.36363 23.808 9.19563 23.88 9.00363 23.88C8.97163 23.88 8.93163 23.872 8.88363 23.856C8.85163 23.84 8.79563 23.808 8.71563 23.76C8.63563 23.712 8.50763 23.632 8.33163 23.52C7.97963 23.296 7.61963 23.136 7.25163 23.04C6.88363 22.928 6.45963 22.872 5.97963 22.872C4.63563 22.872 3.68363 23.4 3.12363 24.456C2.96363 24.792 2.82763 25.288 2.71563 25.944C2.60363 26.6 2.54763 27.272 2.54763 27.96V29.808C2.54763 30.192 2.57163 30.592 2.61963 31.008C2.66763 31.408 2.72363 31.792 2.78763 32.16C2.99563 33.104 3.37163 33.784 3.91563 34.2C4.45963 34.616 5.25163 34.824 6.29163 34.824C6.80363 34.824 7.25163 34.8 7.63563 34.752C8.03563 34.688 8.45163 34.592 8.88363 34.464ZM23.5666 30.192V35.208C23.5666 35.512 23.4946 35.76 23.3506 35.952C23.2066 36.128 22.9986 36.216 22.7266 36.216C22.4706 36.216 22.2706 36.128 22.1266 35.952C21.9826 35.76 21.9106 35.512 21.9106 35.208V22.68C21.9106 22.312 22.0146 22.056 22.2226 21.912C22.4306 21.768 22.6946 21.696 23.0146 21.696H25.7986C26.9026 21.696 27.8066 21.832 28.5106 22.104C29.2306 22.36 29.7586 22.792 30.0946 23.4C30.4466 24.008 30.6226 24.848 30.6226 25.92C30.6226 26.624 30.5426 27.224 30.3826 27.72C30.2386 28.216 29.9906 28.632 29.6386 28.968C29.3026 29.288 28.8546 29.56 28.2946 29.784C28.4546 29.928 28.5986 30.12 28.7266 30.36C28.8706 30.584 29.0386 30.904 29.2306 31.32L30.7906 34.8C30.8386 34.912 30.8786 35.024 30.9106 35.136C30.9426 35.232 30.9586 35.328 30.9586 35.424C30.9586 35.616 30.8706 35.792 30.6946 35.952C30.5346 36.112 30.3426 36.192 30.1186 36.192C29.7346 36.192 29.4546 35.968 29.2786 35.52L27.6706 31.752C27.5426 31.448 27.4066 31.184 27.2626 30.96C27.1346 30.72 27.0066 30.552 26.8786 30.456C26.7666 30.344 26.6306 30.272 26.4706 30.24C26.3266 30.208 26.0786 30.192 25.7266 30.192H23.5666ZM23.5426 28.848H25.5586C26.4226 28.848 27.1026 28.76 27.5986 28.584C28.1106 28.392 28.4706 28.088 28.6786 27.672C28.8866 27.24 28.9906 26.664 28.9906 25.944C28.9906 24.872 28.7666 24.128 28.3186 23.712C27.8706 23.296 27.0786 23.088 25.9426 23.088H23.5426V28.848ZM43.7734 23.16V27.816H48.5254C48.7974 27.816 49.0134 27.88 49.1734 28.008C49.3334 28.136 49.4134 28.312 49.4134 28.536C49.4134 28.76 49.3334 28.936 49.1734 29.064C49.0134 29.192 48.7974 29.256 48.5254 29.256H43.7734V34.536H49.6054C49.8774 34.536 50.0934 34.608 50.2534 34.752C50.4134 34.88 50.4934 35.056 50.4934 35.28C50.4934 35.504 50.4134 35.68 50.2534 35.808C50.0934 35.936 49.8774 36 49.6054 36H43.1014C42.7494 36 42.4934 35.896 42.3334 35.688C42.1894 35.48 42.1174 35.216 42.1174 34.896V22.8C42.1174 22.4 42.1974 22.12 42.3574 21.96C42.5334 21.784 42.8214 21.696 43.2214 21.696H49.3414C49.6294 21.696 49.8454 21.76 49.9894 21.888C50.1494 22.016 50.2294 22.192 50.2294 22.416C50.2294 22.64 50.1494 22.824 49.9894 22.968C49.8454 23.096 49.6294 23.16 49.3414 23.16H43.7734ZM68.4468 32.616H62.2308L61.1748 35.496C61.0148 35.976 60.7428 36.216 60.3588 36.216C60.1508 36.216 59.9668 36.144 59.8068 36C59.6468 35.84 59.5668 35.656 59.5668 35.448C59.5668 35.368 59.5748 35.288 59.5908 35.208C59.6068 35.128 59.6308 35.04 59.6628 34.944L64.2948 22.392C64.4228 22.072 64.5668 21.84 64.7268 21.696C64.8868 21.552 65.0948 21.48 65.3508 21.48C65.6068 21.48 65.8148 21.552 65.9748 21.696C66.1348 21.84 66.2708 22.064 66.3828 22.368L71.0388 34.92C71.1028 35.096 71.1348 35.272 71.1348 35.448C71.1348 35.656 71.0548 35.84 70.8948 36C70.7348 36.144 70.5428 36.216 70.3188 36.216C69.9508 36.216 69.6708 35.968 69.4788 35.472L68.4468 32.616ZM68.0148 31.224L65.3508 23.88L62.6628 31.224H68.0148ZM82.8001 23.16H79.3681C79.0961 23.16 78.8801 23.096 78.7201 22.968C78.5601 22.824 78.4801 22.64 78.4801 22.416C78.4801 22.192 78.5601 22.016 78.7201 21.888C78.8801 21.76 79.0961 21.696 79.3681 21.696H87.8641C88.1521 21.696 88.3681 21.76 88.5121 21.888C88.6721 22.016 88.7521 22.192 88.7521 22.416C88.7521 22.64 88.6721 22.824 88.5121 22.968C88.3681 23.096 88.1521 23.16 87.8641 23.16H84.4321V35.208C84.4321 35.512 84.3601 35.76 84.2161 35.952C84.0881 36.128 83.8881 36.216 83.6161 36.216C83.3601 36.216 83.1601 36.128 83.0161 35.952C82.8721 35.76 82.8001 35.512 82.8001 35.208V23.16ZM111.828 23.16V27.936H116.436C116.708 27.936 116.916 28 117.06 28.128C117.22 28.256 117.3 28.432 117.3 28.656C117.3 28.88 117.22 29.056 117.06 29.184C116.916 29.312 116.708 29.376 116.436 29.376H111.828V35.208C111.828 35.512 111.756 35.76 111.612 35.952C111.468 36.128 111.26 36.216 110.988 36.216C110.732 36.216 110.532 36.128 110.388 35.952C110.244 35.76 110.172 35.512 110.172 35.208V22.68C110.172 22.312 110.276 22.056 110.484 21.912C110.692 21.768 110.956 21.696 111.276 21.696H117.228C117.516 21.696 117.732 21.76 117.876 21.888C118.036 22.016 118.116 22.192 118.116 22.416C118.116 22.64 118.036 22.824 117.876 22.968C117.732 23.096 117.516 23.16 117.228 23.16H111.828ZM135.071 32.616H128.855L127.799 35.496C127.639 35.976 127.367 36.216 126.983 36.216C126.775 36.216 126.591 36.144 126.431 36C126.271 35.84 126.191 35.656 126.191 35.448C126.191 35.368 126.199 35.288 126.215 35.208C126.231 35.128 126.255 35.04 126.287 34.944L130.919 22.392C131.047 22.072 131.191 21.84 131.351 21.696C131.511 21.552 131.719 21.48 131.975 21.48C132.231 21.48 132.439 21.552 132.599 21.696C132.759 21.84 132.895 22.064 133.007 22.368L137.663 34.92C137.727 35.096 137.759 35.272 137.759 35.448C137.759 35.656 137.679 35.84 137.519 36C137.359 36.144 137.167 36.216 136.943 36.216C136.575 36.216 136.295 35.968 136.103 35.472L135.071 32.616ZM134.639 31.224L131.975 23.88L129.287 31.224H134.639ZM154.82 28.32C155.732 28.528 156.356 28.944 156.692 29.568C157.044 30.192 157.22 30.992 157.22 31.968C157.22 33.024 157.036 33.848 156.668 34.44C156.3 35.016 155.756 35.424 155.036 35.664C154.316 35.888 153.412 36 152.324 36H149.132C148.78 36 148.524 35.896 148.364 35.688C148.22 35.48 148.148 35.216 148.148 34.896V22.8C148.148 22.4 148.228 22.12 148.388 21.96C148.564 21.784 148.852 21.696 149.252 21.696H152.372C153.956 21.696 155.092 21.96 155.78 22.488C156.468 23 156.812 23.856 156.812 25.056C156.812 26.72 156.148 27.808 154.82 28.32ZM149.756 27.792H151.844C152.58 27.792 153.188 27.728 153.668 27.6C154.164 27.472 154.54 27.224 154.796 26.856C155.052 26.488 155.18 25.936 155.18 25.2C155.18 24.576 155.044 24.112 154.772 23.808C154.516 23.504 154.164 23.304 153.716 23.208C153.268 23.112 152.748 23.064 152.156 23.064H149.756V27.792ZM149.756 34.608H152.108C152.86 34.608 153.492 34.544 154.004 34.416C154.516 34.288 154.9 34.04 155.156 33.672C155.428 33.288 155.564 32.712 155.564 31.944C155.564 31.144 155.428 30.544 155.156 30.144C154.884 29.728 154.484 29.448 153.956 29.304C153.428 29.16 152.772 29.088 151.988 29.088H149.756V34.608ZM170.058 30.192V35.208C170.058 35.512 169.986 35.76 169.842 35.952C169.698 36.128 169.49 36.216 169.218 36.216C168.962 36.216 168.762 36.128 168.618 35.952C168.474 35.76 168.402 35.512 168.402 35.208V22.68C168.402 22.312 168.506 22.056 168.714 21.912C168.922 21.768 169.186 21.696 169.506 21.696H172.29C173.394 21.696 174.298 21.832 175.002 22.104C175.722 22.36 176.25 22.792 176.586 23.4C176.938 24.008 177.114 24.848 177.114 25.92C177.114 26.624 177.034 27.224 176.874 27.72C176.73 28.216 176.482 28.632 176.13 28.968C175.794 29.288 175.346 29.56 174.786 29.784C174.946 29.928 175.09 30.12 175.218 30.36C175.362 30.584 175.53 30.904 175.722 31.32L177.282 34.8C177.33 34.912 177.37 35.024 177.402 35.136C177.434 35.232 177.45 35.328 177.45 35.424C177.45 35.616 177.362 35.792 177.186 35.952C177.026 36.112 176.834 36.192 176.61 36.192C176.226 36.192 175.946 35.968 175.77 35.52L174.162 31.752C174.034 31.448 173.898 31.184 173.754 30.96C173.626 30.72 173.498 30.552 173.37 30.456C173.258 30.344 173.122 30.272 172.962 30.24C172.818 30.208 172.57 30.192 172.218 30.192H170.058ZM170.034 28.848H172.05C172.914 28.848 173.594 28.76 174.09 28.584C174.602 28.392 174.962 28.088 175.17 27.672C175.378 27.24 175.482 26.664 175.482 25.944C175.482 24.872 175.258 24.128 174.81 23.712C174.362 23.296 173.57 23.088 172.434 23.088H170.034V28.848ZM188.752 35.208V22.488C188.752 22.168 188.824 21.92 188.968 21.744C189.112 21.568 189.312 21.48 189.568 21.48C189.84 21.48 190.048 21.568 190.192 21.744C190.336 21.92 190.408 22.168 190.408 22.488V35.208C190.408 35.512 190.336 35.76 190.192 35.952C190.048 36.128 189.84 36.216 189.568 36.216C189.312 36.216 189.112 36.128 188.968 35.952C188.824 35.76 188.752 35.512 188.752 35.208ZM203.588 27.96V29.808C203.588 30.48 203.636 31.12 203.732 31.728C203.828 32.32 203.996 32.848 204.236 33.312C204.476 33.776 204.82 34.144 205.268 34.416C205.716 34.688 206.3 34.824 207.02 34.824C207.372 34.824 207.684 34.8 207.956 34.752C208.244 34.688 208.524 34.592 208.796 34.464C209.084 34.336 209.372 34.168 209.66 33.96C209.884 33.816 210.06 33.744 210.188 33.744C210.396 33.744 210.564 33.824 210.692 33.984C210.836 34.144 210.908 34.328 210.908 34.536C210.908 34.744 210.828 34.92 210.668 35.064C210.284 35.432 209.772 35.72 209.132 35.928C208.492 36.136 207.772 36.24 206.972 36.24C205.964 36.24 205.132 36.08 204.476 35.76C203.82 35.424 203.308 34.96 202.94 34.368C202.572 33.776 202.308 33.096 202.148 32.328C202.004 31.544 201.932 30.696 201.932 29.784V27.912C201.932 27 202.004 26.152 202.148 25.368C202.308 24.584 202.572 23.904 202.94 23.328C203.324 22.736 203.844 22.28 204.5 21.96C205.156 21.624 205.988 21.456 206.996 21.456C207.748 21.456 208.42 21.552 209.012 21.744C209.62 21.92 210.116 22.192 210.5 22.56C210.644 22.704 210.716 22.88 210.716 23.088C210.716 23.296 210.644 23.48 210.5 23.64C210.356 23.784 210.18 23.856 209.972 23.856C209.828 23.856 209.644 23.776 209.42 23.616C208.732 23.12 207.94 22.872 207.044 22.872C206.324 22.872 205.732 23.008 205.268 23.28C204.82 23.552 204.468 23.928 204.212 24.408C203.972 24.872 203.804 25.416 203.708 26.04C203.628 26.648 203.588 27.288 203.588 27.96ZM223.404 29.016C222.572 28.568 221.924 28.16 221.46 27.792C220.996 27.408 220.668 27 220.476 26.568C220.3 26.136 220.212 25.616 220.212 25.008C220.212 23.856 220.548 22.976 221.22 22.368C221.908 21.76 222.9 21.456 224.196 21.456C224.756 21.456 225.276 21.528 225.756 21.672C226.252 21.8 226.652 21.968 226.956 22.176C227.26 22.384 227.412 22.616 227.412 22.872C227.412 23.08 227.34 23.256 227.196 23.4C227.052 23.544 226.876 23.616 226.668 23.616C226.62 23.616 226.572 23.616 226.524 23.616C226.492 23.6 226.436 23.576 226.356 23.544C226.276 23.496 226.164 23.432 226.02 23.352C225.476 23.032 224.884 22.872 224.244 22.872C223.476 22.872 222.884 23.048 222.468 23.4C222.068 23.752 221.868 24.256 221.868 24.912C221.868 25.408 221.98 25.808 222.204 26.112C222.428 26.416 222.732 26.688 223.116 26.928C223.516 27.152 223.964 27.4 224.46 27.672C225.148 28.024 225.764 28.384 226.308 28.752C226.868 29.12 227.308 29.576 227.628 30.12C227.948 30.648 228.108 31.344 228.108 32.208C228.108 33.536 227.724 34.544 226.956 35.232C226.204 35.904 225.068 36.24 223.548 36.24C222.588 36.24 221.804 36.12 221.196 35.88C220.588 35.624 220.116 35.248 219.78 34.752C219.684 34.592 219.66 34.424 219.708 34.248C219.74 34.104 219.82 33.984 219.948 33.888C220.076 33.776 220.22 33.72 220.38 33.72C220.476 33.72 220.556 33.736 220.62 33.768C220.684 33.8 220.796 33.88 220.956 34.008C221.676 34.552 222.548 34.824 223.572 34.824C224.5 34.824 225.212 34.608 225.708 34.176C226.22 33.728 226.476 33.096 226.476 32.28C226.476 31.64 226.316 31.128 225.996 30.744C225.692 30.36 225.3 30.04 224.82 29.784C224.356 29.528 223.884 29.272 223.404 29.016Z" fill="#E9FF46"/>
</svg>
